<svg version="1.1" xmlns="http://www.w3.org/2000/svg" xmlns:xlink="http://www.w3.org/1999/xlink">
  <symbol viewBox="0 0 80 80" id= "logo">
    <path d="M25.4 41.3l-3.7-14.1h-5v25.5h3.9V37.1L23.8 49h3.4l3.1-11.9v15.7h3.9V27.2h-5l-3.8 14.1zm21.9.6l-6.6-6.4c-.5-.5-.8-.9-1-1.3-.1-.4-.2-1-.2-1.8 0-.7.2-1.2.6-1.5.4-.4 1.2-.6 2.1-.6 1 0 1.7.2 2.1.6.4.4.6.9.6 1.6v4H49v-3.8c0-2.7-1.1-5.9-6.5-5.9-2.2 0-3.9.5-5 1.5-1.2 1-1.7 2.5-1.7 4.4 0 1.2.2 2.2.5 3 .3.8.9 1.6 1.7 2.5l6.4 6.4c.5.5.8 1 1 1.4.2.4.2 1.1.2 1.8 0 .6-.2 1.1-.7 1.5-.5.4-1.3.6-2.3.6-1.1 0-1.8-.2-2.3-.6-.4-.4-.7-.9-.7-1.6v-4h-3.9v3.8c0 4.9 3.7 5.9 6.8 5.9 3.1 0 6.8-1 6.8-5.9 0-1.2-.1-2.2-.4-3-.3-.9-.8-1.7-1.6-2.6zm2.5-14.7v3.5h4.8v22h3.9v-22h4.8v-3.5H49.8z"></path>
  </symbol>

  <symbol viewBox="0 0 109 84.01" id= 'orientation'>
    <path fill="#1D1D1D" d="M107.527 0H60.392c-.813 0-1.473.66-1.473 1.474v81.063c0 .813.659 1.474 1.473 1.474h47.136c.813 0 1.473-.66 1.473-1.474V1.474A1.475 1.475 0 0 0 107.527 0zm-1.532 71.777c0 .716-.58 1.297-1.296 1.297H63.22a1.297 1.297 0 0 1-1.296-1.297V4.864c0-.716.58-1.297 1.296-1.297h41.479c.716 0 1.296.581 1.296 1.297v66.913zM37.883 9.728l4.101 4.163H24.138c-5.977 0-10.839 4.884-10.839 10.889h3.04c0-4.367 3.498-7.919 7.799-7.919h17.877l-4.133 4.195 2.092 2.124 7.671-7.789-7.671-7.786-2.091 2.123z"/>
    <path fill-rule="evenodd" clip-rule="evenodd" fill="#1D1D1D" d="M82.486 33.898H1.473C.66 33.898 0 34.559 0 35.372v47.164c0 .813.66 1.474 1.473 1.474h81.014c.813 0 1.474-.66 1.474-1.474V35.372a1.476 1.476 0 0 0-1.475-1.474zM73.03 79.706c0 .717-.581 1.297-1.297 1.297H4.861c-.717 0-1.297-.58-1.297-1.297V38.202c0-.717.58-1.297 1.297-1.297h66.872c.716 0 1.297.58 1.297 1.297v41.504z" opacity=".25"/>
  </symbol>

  <symbol viewBox="0 0 20 19" id= 'icon-filter'>
    <path fill-rule="evenodd" fill="#FFF" d="M9.082 16.469l-1.818 1.734V9.471L.828.889h18.344L12.468 9.47v4.323l-1.818 1.629V8.8l4.705-6.022H4.611l4.471 6.031v7.66z"></path>
  </symbol>

  <symbol viewBox="0 0 25 32.8" id='icon-bell'>
    <path d="M12.9 6.8h-.8C7.6 7 4 10.8 4 15.3V26h17V15.3c0-4.5-3.6-8.3-8.1-8.5zm-.4 23.7c1 0 1.9-.8 1.9-1.9v-.4h-3.7v.4c0 1.1.8 1.9 1.8 1.9zm-.3-25.9h.6c.5-.1.9-.6.9-1.2s-.5-1.2-1.2-1.2-1.2.5-1.2 1.2c0 .6.4 1 .9 1.2z" fill="none"></path>
    <path d="M3.9 15.3c0-4.6 3.6-8.3 8.1-8.5h.8c4.5.2 8.1 4 8.1 8.5V26h2.2V15.3c0-4.9-3.3-9-7.7-10.3.2-.5.4-1 .4-1.6 0-1.9-1.5-3.4-3.4-3.4S9 1.5 9 3.4c.1.6.2 1.1.5 1.6C5 6.3 1.7 10.4 1.7 15.3V26h2.2V15.3zm8.6-13.1c.6 0 1.2.5 1.2 1.2 0 .6-.4 1-.9 1.2h-.6c-.5-.1-.9-.6-.9-1.2s.5-1.2 1.2-1.2zm1.9 26.5c0 1-.8 1.9-1.9 1.9s-1.9-.8-1.9-1.9v-.4H8.5v.4c0 2.3 1.8 4.1 4.1 4.1s4.1-1.8 4.1-4.1v-.4h-2.2v.4zm8.8-2.7H0v2.3h25V26z"></path>
  </symbol>

  <symbol viewBox="0 0 40 30" id="icon-headhunter">
    <path d="M22.4 9.1v4.3a2.8 2.8 0 0 1 2.3-1.2 3.08 3.08 0 0 1 1.3.3c.4.2.7.4.8.7a3.55 3.55 0 0 1 .4.9 5.76 5.76 0 0 1 .1 1.5v4.5h-2V16a5 5 0 0 0-.1-1.5 1 1 0 0 0-.4-.5 1.45 1.45 0 0 0-.7-.2 2.92 2.92 0 0 0-.9.2 1.34 1.34 0 0 0-.6.7 4.87 4.87 0 0 0-.2 1.5v3.9h-2v-11zm-7.9 0v4.3a2.8 2.8 0 0 1 2.3-1.2 3.08 3.08 0 0 1 1.3.3c.4.2.7.4.8.7a3.55 3.55 0 0 1 .4.9 5.76 5.76 0 0 1 .1 1.5v4.5h-2V16a5 5 0 0 0-.1-1.5 1 1 0 0 0-.4-.5 1.45 1.45 0 0 0-.7-.2 2.92 2.92 0 0 0-.9.2 1.34 1.34 0 0 0-.6.7 3.42 3.42 0 0 0-.2 1.5v3.9h-2v-11zM20 27.5A12.5 12.5 0 1 0 7.5 15 12.5 12.5 0 0 0 20 27.5z" fill-rule="evenodd"/>
  </symbol>

  <symbol viewBox="0 0 40 30" id='icon-instagram'>
    <path d="M23.44 4.5h-6.88a7.06 7.06 0 0 0-7.06 7.06v6.88a7.07 7.07 0 0 0 7.06 7.06h6.88a7.06 7.06 0 0 0 7.06-7.06v-6.88a7.07 7.07 0 0 0-7.06-7.06zm2.29 5.94a1.18 1.18 0 0 1 0-2.35 1.18 1.18 0 0 1 1.18 1.18 1.17 1.17 0 0 1-1.18 1.17zM24.4 15a4.41 4.41 0 1 1-4.4-4.4 4.4 4.4 0 0 1 4.4 4.4z"/>
  </symbol>

  <symbol viewBox="0 0 40 30" id="icon-twitter">
    <path d="M33.5 7a10.1 10.1 0 0 1-2.94.84 5.39 5.39 0 0 0 2.25-2.93 10.34 10.34 0 0 1-3.26 1.29 5 5 0 0 0-3.74-1.7 5.22 5.22 0 0 0-5.13 5.3 5.47 5.47 0 0 0 .13 1.2 14.4 14.4 0 0 1-10.57-5.53 5.44 5.44 0 0 0 1.59 7.08 5 5 0 0 1-2.32-.67V12a5.27 5.27 0 0 0 4.11 5.2 5.16 5.16 0 0 1-1.35.18 4.5 4.5 0 0 1-1-.1 5.18 5.18 0 0 0 4.79 3.69 10.12 10.12 0 0 1-6.37 2.26 10 10 0 0 1-1.22-.07 14.11 14.11 0 0 0 7.86 2.39C25.8 25.5 31 17.42 31 10.41v-.69A10.16 10.16 0 0 0 33.5 7z"></path>
  </symbol>

  <symbol viewBox="0 0 40 30" id="icon-vk">
    <path d="M29 16.9c.83.81 1.71 1.56 2.45 2.44a7.3 7.3 0 0 1 .88 1.26c.33.65 0 1.36-.56 1.4h-3.63a2.8 2.8 0 0 1-2.32-.93c-.5-.51-1-1-1.45-1.58a3.61 3.61 0 0 0-.66-.57.76.76 0 0 0-1.21.29 3.76 3.76 0 0 0-.38 1.68c0 .85-.3 1.07-1.16 1.11a9.34 9.34 0 0 1-5.21-1.11 11.48 11.48 0 0 1-3.51-3.25 43.36 43.36 0 0 1-4.61-8.16c-.29-.64-.08-1 .64-1h3.56a1.06 1.06 0 0 1 1 .73 21.48 21.48 0 0 0 2.42 4.44 3.77 3.77 0 0 0 .91 1 .56.56 0 0 0 .94-.28 3 3 0 0 0 .21-.93 13.67 13.67 0 0 0-.06-3.26 1.36 1.36 0 0 0-1.17-1.25c-.34-.06-.29-.19-.12-.39a1.29 1.29 0 0 1 1.1-.54h4.12c.64.13.79.42.88 1.06v4.54c0 .25.13 1 .58 1.15s.61-.17.82-.4a13.83 13.83 0 0 0 2.32-3.53c.28-.55.52-1.13.75-1.71a.88.88 0 0 1 .93-.63h4a2 2 0 0 1 .35 0c.67.11.85.4.65 1a9.91 9.91 0 0 1-1.58 2.7c-.66.91-1.36 1.78-2 2.69s-.56 1.25.19 2z"></path>
  </symbol>

  <symbol viewBox="0 0 40 30" id="icon-dribble">
    <path d="M19.4 11.6a57.38 57.38 0 0 0-3.9-6.1 10.73 10.73 0 0 0-5.8 7.3 33.15 33.15 0 0 0 9.7-1.2zm1.3 3.5l.4-.1a14.17 14.17 0 0 1-.8-1.8 37.71 37.71 0 0 1-10.8 1.5v.3a10.18 10.18 0 0 0 2.7 7 16.19 16.19 0 0 1 8.5-6.9zm1.6-2.6c.2.5.5 1 .7 1.5l.2.5a30.06 30.06 0 0 1 7.3.3 9.81 9.81 0 0 0-2.4-6.5c-.2.4-2 2.6-5.8 4.2zm-.5 4.2c-5.9 2.1-8 6.2-8.2 6.6a10.33 10.33 0 0 0 6.4 2.2 11.09 11.09 0 0 0 4.1-.8 45 45 0 0 0-2.3-8zM27 7.1a10.68 10.68 0 0 0-9.5-2.3 57.38 57.38 0 0 1 3.9 6.1A11.84 11.84 0 0 0 27 7.1zm-3.2 9.1a39.47 39.47 0 0 1 2 7.5 10.46 10.46 0 0 0 4.5-7 15.33 15.33 0 0 0-6.5-.5z"></path>
  </symbol>

  <symbol viewBox="0 0 40 30" id="icon-facebook">
    <path d="M17.44 8.58v2.89H15.5V15h1.94v10.51h4V15h2.68s.25-1.7.37-3.55h-3v-2.4a1 1 0 0 1 .86-.85h2.15V4.51h-3a3.71 3.71 0 0 0-4.09 3.28 4.17 4.17 0 0 0 .03.79z"></path>
  </symbol>

  <symbol viewBox="0 0 29 29" id= 'icon-plus'>
    <path d="M11.152 28.999v-11.16H.001v-6.69h11.151V-.001h6.69v11.148h11.159v6.69H17.843v11.162z"/>
  </symbol>

  <symbol viewBox="0 0 24 45" id='icon-arrow'>
    <path d="M23.285 44.055L2.095 23.326l20.781-22.3" fill= "none" stroke="currentColor" stroke-width="3"/>
  </symbol>

  <symbol viewBox="0 0 24 24" id='icon-info'>
    <path d="M11.3 6h1.3v8h-1.3V6zm0 9.4h1.3v1.3h-1.3v-1.3z"/><path d="M12 24c-3.2 0-6.2-1.2-8.5-3.5S0 15.2 0 12s1.2-6.2 3.5-8.5C5.8 1.3 8.8 0 12 0s6.2 1.3 8.5 3.5C22.8 5.8 24 8.8 24 12s-1.3 6.2-3.5 8.5C18.2 22.8 15.2 24 12 24zm0-22.7c-2.8 0-5.5 1.1-7.5 3.1s-3.1 4.7-3.1 7.5 1.1 5.5 3.1 7.5 4.7 3.1 7.5 3.1 5.5-1.1 7.5-3.1 3.1-4.7 3.1-7.5c0-2.9-1.1-5.5-3.1-7.5-2-1.9-4.7-3.1-7.5-3.1z"/>
  </symbol>

  <symbol viewBox="0 0 47.032 47.032" id='icon-attachment'>
    <path d="M47.013 15.937c-.187-3.685-1.74-7.25-4.26-9.78C37.534.919 28.994.618 23.773 5.354l-.025-.024L2.737 26.419c-3.806 3.82-3.617 10.464.412 14.508a10.128 10.128 0 0 0 7.054 2.991l.164.001a9.73 9.73 0 0 0 6.423-2.381l.025.025 20.569-20.644c2.507-2.516 2.507-6.609 0-9.125-1.214-1.219-2.829-1.89-4.546-1.89s-3.331.671-4.546 1.89l-17.765 17.83 2.859 2.869 17.765-17.83c.901-.905 2.473-.905 3.374 0 .93.933.93 2.453 0 3.386L14.461 38.186c-1.101 1.104-2.588 1.699-4.195 1.673a6.12 6.12 0 0 1-4.259-1.803c-2.437-2.446-2.629-6.543-.412-8.769L26.164 8.644c3.555-3.568 9.97-3.389 13.729.383 1.822 1.828 2.945 4.422 3.081 7.117.139 2.73-.733 5.184-2.452 6.91l1.429 1.435-1.429-1.435-19.034 19.105 2.859 2.87 19.035-19.105c2.539-2.549 3.828-6.095 3.631-9.987z"/>
  </symbol>

  <symbol viewBox="0 0 42 32" id='icon-designAwwwards'>
    <path d="M8.15 14.69a1.11 1.11 0 0 1 .54.08c.15.08.38.15.54.23l.38-1a3.07 3.07 0 0 0-1.46-.31 2.21 2.21 0 0 0-1.23.31 1.64 1.64 0 0 0-.77.85 3.26 3.26 0 0 0-.31 1.3A2.84 2.84 0 0 0 6.38 18a2.18 2.18 0 0 0 1.62.62 3.4 3.4 0 0 0 1.3-.23v-1.08l-.61.23a1.63 1.63 0 0 1-.62.08c-.69 0-1.07-.47-1.07-1.39a1.67 1.67 0 0 1 .23-1c.38-.38.61-.54.92-.54zM13.84 17.46a2.32 2.32 0 0 1-.69-.07 3.45 3.45 0 0 1-.77-.31v1.15l.69.23a2.22 2.22 0 0 0 .77.08 4.24 4.24 0 0 0 1-.15 1.54 1.54 0 0 0 .62-.54 1.34 1.34 0 0 0 .23-.77 1.12 1.12 0 0 0-.23-.77 2.74 2.74 0 0 0-.85-.62 7.85 7.85 0 0 1-.77-.38c-.07-.08-.15-.16-.15-.23a.27.27 0 0 1 .08-.23c.07-.08.23-.08.38-.08a2.57 2.57 0 0 1 1.15.31l.39-1a3.72 3.72 0 0 0-1.54-.31 2.26 2.26 0 0 0-1.31.38 1.25 1.25 0 0 0-.46 1 1.46 1.46 0 0 0 .08.62 1.47 1.47 0 0 0 1 .85 3.45 3.45 0 0 1 .61.3c.08.08.16.08.16.16s.07.07.07.15a.36.36 0 0 1-.15.23zM19.84 17.46a2.32 2.32 0 0 1-.69-.07 3.45 3.45 0 0 1-.77-.31v1.15l.69.23a2.22 2.22 0 0 0 .77.08 4.24 4.24 0 0 0 1-.15 1.54 1.54 0 0 0 .62-.54 1.34 1.34 0 0 0 .23-.77 1.12 1.12 0 0 0-.23-.77 2.74 2.74 0 0 0-.85-.62 7.85 7.85 0 0 1-.77-.38c-.07-.08-.15-.16-.15-.23a.27.27 0 0 1 .08-.23c.07-.08.23-.08.38-.08a2.57 2.57 0 0 1 1.15.31l.39-1a3.72 3.72 0 0 0-1.54-.31 2.26 2.26 0 0 0-1.31.38 1.25 1.25 0 0 0-.46 1 1.46 1.46 0 0 0 .08.62 1.47 1.47 0 0 0 1 .85 3.45 3.45 0 0 1 .61.3c.08.08.16.08.16.16s.07.07.07.15a.36.36 0 0 1-.15.23zM28.69 16a2.24 2.24 0 0 0-.62-1.69 2.4 2.4 0 0 0-1.77-.62h-1.61v4.77h1.54a2.78 2.78 0 0 0 1.84-.61 2.82 2.82 0 0 0 .62-1.85zm-1.62 1.08a1 1 0 0 1-.84.31H26v-2.7h.38a.8.8 0 0 1 .77.31 1.67 1.67 0 0 1 .23 1 1.21 1.21 0 0 1-.31 1.08zM34.46 17.54l.23.92h1.38l-1.53-4.77h-1.7l-1.54 4.77h1.39l.23-.92zM33.54 15a2 2 0 0 0 .07-.54 3.32 3.32 0 0 0 .16.62 4.26 4.26 0 0 1 .15.69l.23.77h-1a8.28 8.28 0 0 0 .39-1.54zM27.15 10.23l-4.92-4.84-4.84 4.84h-2.77L24.85 0h-10.7L3.85 10.23H0v.7h42v-.7H27.15zM0 21.93h14.77l4.77 4.77 4.85-4.77H27L16.85 32h10.76l5.31-5.3 4.85-4.77H42v-.77H0v.77z"/>
  </symbol>

  <symbol viewBox="0 0 32.02 18" id='icon-awwwards'>
    <path d="M26 0l-5.86 17.77h-4L13 6.34 9.84 17.88h-4L0 .11h4.56l3.28 12.23L11 .11h4.2l3.15 12.23L21.62.11 25.94 0z"/>
    <path d="M29 12.11a2.9 2.9 0 0 1 3 2.8v.14A2.9 2.9 0 0 1 29.17 18H29a2.91 2.91 0 0 1-3-2.82v-.13a2.91 2.91 0 0 1 2.88-2.94z"/>
  </symbol>
</svg>
